<svg id="Camada_1" data-name="Camada 1" xmlns="http://www.w3.org/2000/svg" viewBox="0 0 512 512"><defs><style>.cls-1{fill:#181b23;}.cls-2{fill:#dd6b20;}</style></defs><g id="icons"><g id="dashboard"><path class="cls-1" d="M107.16,382.81H64.9a42.27,42.27,0,1,0,0,84.53h42.26a42.27,42.27,0,1,0,0-84.53Z"/><path class="cls-1" d="M276.24,340.54H234a42.39,42.39,0,0,0-42.27,42.27v42.27A42.39,42.39,0,0,0,234,467.34h42.27a42.39,42.39,0,0,0,42.27-42.26V382.81A42.39,42.39,0,0,0,276.24,340.54Z"/><path class="cls-1" d="M445.31,256H403.05a42.39,42.39,0,0,0-42.27,42.27V425.08a42.39,42.39,0,0,0,42.27,42.26h42.26a42.39,42.39,0,0,0,42.27-42.26V298.27A42.39,42.39,0,0,0,445.31,256Z"/><path class="cls-2" d="M466.45,44.66H327c-19,0-27.47,23.24-14.79,35.92l40.15,40.16C274.13,209.5,162.11,277.13,43.76,277.13c-12.68,0-21.13,8.46-21.13,21.14s8.45,21.13,21.13,21.13c141.6,0,272.63-40.15,367.74-139.48l38,38c12.68,12.68,35.93,4.22,35.93-14.8V65.79C487.58,53.11,479.13,44.66,466.45,44.66Z"/></g></g></svg>